<svg width="14" height="14" viewBox="0 0 14 14" fill="none" xmlns="http://www.w3.org/2000/svg">
<path d="M7.01005 0C5.61227 0 4.26804 0.409265 3.13858 1.17928C1.95556 1.94943 1.09547 3.04247 0.557783 4.32417C0.0200942 5.60035 -0.141107 7.00589 0.127737 8.36831C0.45014 9.72534 1.09547 10.9693 2.06321 11.9493C3.03094 12.9294 4.26804 13.5971 5.66583 13.8664C7.01005 14.1356 8.40783 13.9956 9.69849 13.4679C10.9892 12.9402 12.0645 12.0409 12.817 10.8885C13.57 9.73612 14 8.38448 14 7.0005C14 5.1427 13.247 3.36562 11.9569 2.05172C10.6127 0.743067 8.8384 0.00539026 7.01005 0ZM9.69849 7.539H7.54774V9.693C7.54774 9.8384 7.49418 9.97303 7.38653 10.0753C7.27889 10.1722 7.17125 10.2315 7.01005 10.2315C6.84885 10.2315 6.7412 10.1722 6.63356 10.0753C6.52592 9.97303 6.47236 9.8384 6.47236 9.693V7.539H4.3216C4.1604 7.539 4.05276 7.4797 3.94512 7.38281C3.83747 7.28053 3.78392 7.1459 3.78392 7.0005C3.78392 6.85509 3.83747 6.72047 3.94512 6.61818C4.05276 6.52129 4.1604 6.462 4.3216 6.462H6.47236V4.308C6.47236 4.16259 6.52592 4.02797 6.63356 3.92568C6.7412 3.82879 6.84885 3.7695 7.01005 3.7695C7.17125 3.7695 7.27889 3.82879 7.38653 3.92568C7.49418 4.02797 7.54774 4.16259 7.54774 4.308V6.462H9.69849C9.85969 6.462 9.96733 6.52129 10.075 6.61818C10.1826 6.72047 10.2362 6.85509 10.2362 7.0005C10.2362 7.1459 10.1826 7.28053 10.075 7.38281C9.96733 7.4797 9.85969 7.539 9.69849 7.539Z" fill="#0976A6"/>
</svg>
